<?xml version="1.0" standalone="no"?>
<!DOCTYPE svg PUBLIC "-//W3C//DTD SVG 20010904//EN"
 "http://www.w3.org/TR/2001/REC-SVG-20010904/DTD/svg10.dtd">
<svg version="1.0" xmlns="http://www.w3.org/2000/svg"
 width="152.000000pt" height="152.000000pt" viewBox="0 0 152.000000 152.000000"
 preserveAspectRatio="xMidYMid meet">
<metadata>
Created by potrace 1.11, written by Peter Selinger 2001-2013
</metadata>
<g transform="translate(0.000000,152.000000) scale(0.100000,-0.100000)"
fill="#000000" stroke="none">
<path d="M722 1414 c-28 -22 -35 -24 -71 -14 -65 17 -111 15 -211 -9 -54 -14
-125 -24 -164 -24 l-69 1 24 -19 c13 -10 36 -23 51 -30 15 -6 30 -19 33 -29 3
-10 -37 -139 -93 -297 -153 -428 -204 -556 -213 -541 -6 8 -9 -5 -9 -33 0 -39
5 -52 33 -79 61 -61 160 -92 297 -92 152 0 261 40 318 116 38 51 40 64 8 76
-28 10 -25 3 -174 436 -142 411 -140 404 -113 425 38 31 225 50 301 30 65 -16
61 17 60 -457 -1 -594 -4 -634 -56 -737 -29 -57 -41 -63 -158 -77 -85 -11
-137 -28 -151 -50 -4 -7 132 -10 407 -10 l413 0 -40 24 c-28 17 -69 28 -135
36 -52 7 -103 17 -113 22 -31 16 -77 129 -86 210 -4 40 -8 283 -7 540 1 435 2
468 19 485 26 26 228 25 305 -1 54 -18 54 -18 47 -53 -13 -72 -226 -692 -266
-779 -12 -24 -27 -44 -35 -44 -22 0 -26 -18 -10 -47 76 -147 376 -194 581 -91
65 33 75 46 75 98 0 25 -4 50 -10 56 -13 13 -139 359 -227 621 l-68 204 55 49
c53 47 54 49 22 40 -42 -11 -109 -4 -195 21 -75 22 -150 26 -215 11 -36 -8
-46 -7 -67 10 -36 28 -58 29 -93 2z m-396 -617 l6 -357 -142 0 c-110 0 -141 3
-137 13 2 6 55 151 116 321 124 341 142 388 147 384 1 -2 6 -164 10 -361z
m199 -140 c37 -108 65 -200 61 -204 -3 -4 -56 -8 -116 -9 l-110 -3 0 52 c-1
29 -3 187 -6 352 l-4 300 53 -145 c29 -80 84 -234 122 -343z m652 131 c-4
-189 -7 -344 -7 -344 -1 -6 -222 1 -226 7 -2 4 45 150 105 326 120 350 121
353 129 353 3 0 2 -154 -1 -342z m76 282 c8 -25 61 -170 116 -323 56 -153 101
-284 101 -291 0 -9 -13 -12 -42 -10 -24 1 -83 3 -132 3 l-89 1 6 298 c4 163 7
317 7 342 0 52 11 45 33 -20z"/>
</g>
</svg>
