<?xml version="1.0" standalone="no"?>
<!DOCTYPE svg PUBLIC "-//W3C//DTD SVG 20010904//EN"
 "http://www.w3.org/TR/2001/REC-SVG-20010904/DTD/svg10.dtd">
<svg version="1.0" xmlns="http://www.w3.org/2000/svg"
 width="152.000000pt" height="152.000000pt" viewBox="0 0 152.000000 152.000000"
 preserveAspectRatio="xMidYMid meet">
<metadata>
Created by potrace 1.11, written by Peter Selinger 2001-2013
</metadata>
<g transform="translate(0.000000,152.000000) scale(0.100000,-0.100000)"
fill="#000000" stroke="none">
<path d="M720 1408 c-18 -20 -24 -32 -21 -50 0 -3 -41 -4 -92 -1 -74 4 -108 1
-174 -16 -98 -25 -90 -25 -89 0 1 12 -6 24 -14 26 -12 4 -12 3 -2 -5 11 -7 10
-10 -5 -14 -11 -3 -20 -12 -20 -21 0 -19 43 -17 151 8 109 24 229 17 262 -17
l24 -23 0 -490 c1 -415 -2 -499 -15 -550 -23 -85 -59 -161 -87 -178 -13 -8
-60 -17 -110 -20 -81 -6 -138 -23 -153 -47 -4 -7 127 -10 392 -10 396 0 397 0
378 20 -23 22 -102 40 -180 40 -66 0 -94 21 -124 91 -48 111 -51 152 -51 664
1 476 1 480 22 502 12 13 33 24 47 24 25 1 25 2 -4 9 -16 4 -23 8 -16 9 24 2
-50 71 -76 71 -12 0 -31 -10 -43 -22z m71 -3 c0 -5 -12 -11 -26 -13 -18 -2
-25 1 -25 13 0 12 7 15 25 13 14 -2 26 -7 26 -13z m9 -68 c0 -26 -34 -64 -44
-49 -3 5 4 13 17 17 20 7 19 8 -10 12 -25 3 -33 9 -33 24 0 15 7 19 35 19 30
0 35 -3 35 -23z m34 -1258 c-5 -9 -121 -6 -129 3 -4 4 2 42 13 85 11 43 20 68
21 56 1 -23 21 -33 21 -12 0 8 5 8 15 -1 13 -11 15 -8 16 16 0 17 10 -7 23
-56 12 -47 21 -88 20 -91z"/>
<path d="M538 1383 c18 -2 45 -2 60 0 15 2 0 4 -33 4 -33 0 -45 -2 -27 -4z"/>
<path d="M975 1380 c73 -7 193 -37 210 -51 13 -13 -1 -11 -85 11 -45 12 -103
19 -145 18 l-70 -1 85 -7 c47 -4 105 -13 130 -20 25 -7 64 -14 86 -15 34 -3
42 0 40 13 -2 8 -11 19 -22 23 -11 5 -13 8 -5 8 8 1 11 4 8 7 -4 4 -13 1 -22
-6 -12 -10 -30 -8 -93 9 -43 11 -103 20 -133 20 -54 -2 -54 -2 16 -9z"/>
<path d="M445 1370 c-25 -11 1 -11 35 0 20 6 21 8 5 8 -11 0 -29 -3 -40 -8z"/>
<path d="M638 1373 c6 -2 18 -2 25 0 6 3 1 5 -13 5 -14 0 -19 -2 -12 -5z"/>
<path d="M878 1373 c7 -3 16 -2 19 1 4 3 -2 6 -13 5 -11 0 -14 -3 -6 -6z"/>
<path d="M375 1350 c-13 -5 -14 -9 -5 -9 8 0 24 4 35 9 13 5 14 9 5 9 -8 0
-24 -4 -35 -9z"/>
<path d="M330 1300 c-1 -3 -3 -16 -6 -30 -9 -50 -296 -825 -310 -836 -39 -31
3 -94 89 -134 114 -55 272 -63 404 -22 75 24 117 52 149 103 29 46 29 49 5 49
-10 0 -23 6 -29 13 -5 6 -62 163 -127 347 -146 421 -163 470 -168 495 -3 11
-6 18 -7 15z m17 -112 c4 -7 65 -177 134 -378 l127 -365 -117 -7 c-64 -4 -122
-5 -128 -3 -8 3 -14 26 -15 62 l-2 58 -3 -57 -4 -57 -144 -3 c-109 -2 -145 0
-145 9 0 9 194 551 261 731 9 25 24 28 36 10z m104 -779 c70 -12 87 -24 47
-34 -40 -10 -398 -1 -401 10 -1 6 42 12 108 15 98 5 103 6 50 11 -54 5 -50 5
33 7 51 1 124 -3 163 -9z m43 -58 c9 -14 -93 -36 -106 -23 -8 8 -1 14 23 20
44 13 76 14 83 3z"/>
<path d="M1188 1272 c-2 -16 -67 -209 -143 -431 -134 -386 -141 -402 -167
-408 -34 -7 -34 -8 0 -58 96 -139 458 -166 605 -45 39 33 48 71 27 108 -5 9
-40 98 -76 197 -163 445 -224 617 -224 635 0 31 -17 32 -22 2z m162 -453 l137
-374 -126 -8 c-169 -10 -171 -9 -173 56 l-2 52 -3 -52 -4 -53 -129 0 -129 0
70 203 c39 111 96 276 128 367 61 179 67 193 84 187 6 -2 72 -172 147 -378z
m-75 -409 c-21 -5 -3 -8 61 -9 98 -1 139 -16 111 -40 -12 -9 -21 -10 -36 -2
-26 14 -311 15 -311 1 0 -5 6 -10 14 -10 16 0 31 -18 23 -27 -3 -2 -29 0 -59
6 -42 9 -56 17 -65 38 -16 33 -13 35 40 44 59 9 260 9 222 -1z"/>
</g>
</svg>
